<svg width="48" height="48" viewBox="0 0 48 48" fill="none" xmlns="http://www.w3.org/2000/svg">
<circle cx="23.5" cy="24.5" r="23.5" fill="#669164"/>
<path d="M35.2186 31.9001C34.8659 31.7509 34.4767 31.6682 34.0719 31.6682C33.4649 31.6678 32.8943 31.8543 32.4251 32.172C31.9555 32.4889 31.5834 32.9371 31.3593 33.4666C31.2098 33.8192 31.1274 34.2084 31.1274 34.6127C31.127 35.2202 31.3135 35.7908 31.6308 36.2596C31.9481 36.7296 32.3963 37.1016 32.9257 37.3258C33.2784 37.4754 33.6676 37.5577 34.0719 37.5577C34.6795 37.5577 35.2501 37.3717 35.7192 37.0543C36.1884 36.7366 36.5609 36.2887 36.785 35.7593C36.9346 35.4066 37.0169 35.0175 37.0169 34.6127C37.0173 34.0057 36.8309 33.4351 36.5136 32.9659C36.1962 32.4967 35.748 32.1238 35.2186 31.9001ZM35.2935 35.4354C35.1346 35.6708 34.9082 35.8587 34.6449 35.9698C34.4693 36.0437 34.2774 36.0848 34.0719 36.0852C33.7648 36.0848 33.4854 35.9931 33.2497 35.8339C33.0143 35.6754 32.8263 35.449 32.7152 35.1856C32.6411 35.0101 32.5999 34.8181 32.5999 34.6127C32.6003 34.3055 32.6919 34.0262 32.8508 33.7901C33.0097 33.5547 33.2361 33.3675 33.4994 33.256C33.675 33.1818 33.8669 33.1407 34.0719 33.1407C34.3796 33.141 34.6588 33.2331 34.895 33.3916C35.13 33.5509 35.318 33.7769 35.4291 34.0402C35.5033 34.2158 35.5445 34.4077 35.5445 34.6127C35.5441 34.9204 35.4523 35.1996 35.2935 35.4354Z" fill="white"/>
<path d="M24.1051 20.3423C22.9794 20.3423 22.0667 21.1537 22.0667 22.1543C22.0667 23.1552 22.9795 23.9666 24.1051 23.9666C25.2311 23.9666 26.144 23.1552 26.144 22.1543C26.144 21.1537 25.2311 20.3423 24.1051 20.3423Z" fill="white"/>
<path d="M29.3152 19.8893C28.3147 19.8893 27.5031 20.7008 27.5031 21.7014C27.5031 22.702 28.3147 23.5136 29.3152 23.5136C30.3158 23.5136 31.1274 22.702 31.1274 21.7014C31.1274 20.7008 30.3158 19.8893 29.3152 19.8893Z" fill="white"/>
<path d="M33.3926 25.3258C34.1433 25.3258 34.7517 24.717 34.7517 23.9666C34.7517 23.216 34.1433 22.6075 33.3926 22.6075C32.6418 22.6075 32.0334 23.216 32.0334 23.9666C32.0334 24.717 32.6418 25.3258 33.3926 25.3258Z" fill="white"/>
<path d="M34.2987 28.2705C34.2987 29.1465 34.9075 29.8561 35.6578 29.8561C36.4085 29.8561 37.0169 29.1465 37.0169 28.2705C37.0169 27.3944 36.4085 26.6848 35.6578 26.6848C34.9075 26.6848 34.2987 27.3944 34.2987 28.2705Z" fill="white"/>
<path d="M27.6744 14.9961C29.6501 14.9961 31.537 15.4082 33.2516 16.1543C35.8233 17.274 38.0087 19.1429 39.5533 21.4951C41.0976 23.8473 42.0012 26.6882 42.0006 29.7383C42.0013 33.0981 40.896 36.1768 39.0524 38.6387C37.2082 41.1017 34.6279 42.9567 31.6647 43.9004C31.3618 43.9967 31.0422 44.0416 30.7145 44.042C30.3645 44.0416 30.0034 43.9898 29.6481 43.877C29.3818 43.7917 29.1184 43.6712 28.8698 43.5088C28.4969 43.2662 28.1554 42.9233 27.9147 42.4805C27.6727 42.0386 27.5381 41.505 27.5397 40.9219C27.5397 40.6066 27.5774 40.2765 27.653 39.9316C27.7334 39.5663 27.8255 39.2356 27.8922 38.9287C27.9601 38.6211 28.0029 38.3406 28.0026 38.0713C28.0026 37.403 27.8713 36.7702 27.6344 36.1934C27.2794 35.3289 26.6835 34.5903 25.9352 34.0703C25.1861 33.5499 24.2879 33.2475 23.3141 33.2471C22.0085 33.2476 20.8296 33.7744 20.0104 34.6484C19.7014 34.9779 19.324 35.2257 18.9137 35.3926C18.5032 35.5589 18.0582 35.6455 17.6002 35.6455C17.0873 35.6455 16.558 35.5363 16.0524 35.3027C15.6737 35.1276 15.3088 34.8825 14.9791 34.5654C14.4842 34.0904 14.0707 33.4552 13.7877 32.6729C13.5041 31.8901 13.3473 30.9615 13.3473 29.877C13.3473 29.8277 13.3479 29.7776 13.3483 29.7275V29.7266C13.3635 28.5691 13.5039 27.4419 13.7574 26.3604C14.1141 27.0982 14.4803 27.9658 14.7985 28.6113C14.861 28.7382 14.9443 28.8652 15.0416 28.9922C15.0248 29.2429 15.0127 29.4956 15.0094 29.75C15.009 29.7925 15.0084 29.8349 15.0084 29.877C15.0084 30.6907 15.1129 31.3534 15.2789 31.8828C15.4031 32.2805 15.5616 32.6034 15.7379 32.8662C16.0028 33.2598 16.3075 33.5204 16.6256 33.6904C16.9439 33.8597 17.2805 33.9365 17.6002 33.9365C17.8538 33.9365 18.0959 33.8871 18.3043 33.8027C18.5136 33.7175 18.6878 33.5977 18.8151 33.4619C19.956 32.2446 21.5725 31.5372 23.3141 31.5371C24.1882 31.5371 25.0259 31.7207 25.7858 32.0518C26.9263 32.5481 27.8944 33.3757 28.5787 34.418C29.2629 35.4594 29.6631 36.7214 29.6627 38.0713C29.6627 38.5238 29.5932 38.9346 29.5123 39.3047C29.4307 39.6752 29.3382 40.0073 29.2731 40.3076C29.2214 40.543 29.2008 40.7468 29.2008 40.9219C29.2016 41.2106 29.2552 41.4182 29.3326 41.584C29.3913 41.7078 29.4649 41.8106 29.5553 41.9014C29.6906 42.037 29.8676 42.1462 30.0719 42.2207C30.275 42.2957 30.5033 42.3337 30.7145 42.333C30.8894 42.3338 31.0524 42.3071 31.1735 42.2686C33.809 41.4298 36.1043 39.7767 37.736 37.5957C39.3677 35.4139 40.3388 32.7111 40.3395 29.7383C40.3395 27.9365 39.985 26.2238 39.3444 24.665C38.3835 22.3276 36.7765 20.3359 34.7545 18.9307C32.7321 17.5254 30.3002 16.7055 27.6744 16.7051C26.1718 16.7051 24.7382 16.9732 23.4098 17.4658C23.7801 16.7256 24.1606 15.9945 24.485 15.3643C25.5099 15.1233 26.5776 14.9961 27.6744 14.9961Z" fill="white"/>
<path d="M20.7415 22.4701C20.6966 22.3148 20.6829 22.155 20.6979 21.9654C20.7229 21.6342 20.8574 21.2109 21.0624 20.72C21.3664 19.9815 21.8214 19.1086 22.1202 18.0789C22.2683 17.5651 22.3759 17.0084 22.3964 16.4126C22.4178 15.8172 22.3491 15.1831 22.1565 14.5273C21.1147 10.9699 17.4691 8.95402 14.0109 10.0258C10.5538 11.0972 8.59578 14.8498 9.63633 18.4075C9.92799 19.4084 10.4351 20.1974 11.0143 20.8138C11.885 21.7385 12.8986 22.3052 13.6803 22.8216C14.0726 23.0771 14.4056 23.3189 14.6401 23.552C14.8764 23.7866 15.0099 23.9955 15.0779 24.2254L16.5642 23.7647C16.4565 23.3943 16.2757 23.0674 16.0611 22.7876C15.6818 22.2987 15.2094 21.9432 14.7237 21.6135C13.9936 21.1216 13.2169 20.6828 12.5701 20.1239C12.2464 19.8446 11.9563 19.5391 11.7115 19.1863C11.4666 18.8336 11.2656 18.4332 11.1233 17.9467C10.7256 16.5879 10.9003 15.1994 11.5045 14.0398C12.1103 12.881 13.1383 11.9652 14.4585 11.5554C15.7791 11.1467 17.1276 11.3261 18.2551 11.9477C19.3811 12.571 20.2719 13.6293 20.6701 14.988C20.8851 15.729 20.8853 16.383 20.7716 17.0273C20.6023 17.9914 20.1446 18.9186 19.735 19.8559C19.5322 20.3258 19.3423 20.801 19.2303 21.3101C19.119 21.815 19.0911 22.3726 19.2551 22.9308L20.7415 22.4702L20.7415 22.4701Z" fill="white"/>
<path d="M16.3704 26.526L20.6303 25.2058C20.9587 25.104 21.145 24.747 21.0461 24.409C20.9472 24.0711 20.6003 23.8794 20.2719 23.9811L16.012 25.3014C15.6842 25.403 15.4979 25.76 15.5968 26.0979C15.6957 26.4358 16.0426 26.6276 16.3704 26.526Z" fill="white"/>
<path d="M16.9606 28.5427L21.2205 27.2225C21.5489 27.1207 21.7352 26.7637 21.6365 26.4264C21.5376 26.0885 21.1909 25.8973 20.8625 25.9991L16.6026 27.3193C16.2748 27.4209 16.0883 27.7774 16.1872 28.1152C16.2859 28.4526 16.6329 28.6443 16.9606 28.5427Z" fill="white"/>
<path d="M18.0574 29.2876C18.4578 29.6967 19.0583 29.874 19.6364 29.6948C20.2151 29.5154 20.6206 29.0264 20.7337 28.4581L18.0574 29.2876Z" fill="white"/>
<path d="M8.13338 12.6458C8.48339 12.8273 8.62664 13.2614 8.45329 13.6155C8.27994 13.9697 7.85564 14.1096 7.50561 13.9282L4.63384 12.4394C4.2838 12.258 4.14057 11.8238 4.31392 11.4697C4.48728 11.1156 4.91157 10.9756 5.26161 11.1571L8.13338 12.6458Z" fill="white"/>
<path d="M10.5041 10.754C10.6887 11.1023 10.5597 11.5411 10.216 11.7341C9.87223 11.9272 9.44387 11.8014 9.25914 11.4531L8.08096 9.2313C7.89625 8.88297 8.0252 8.44409 8.36898 8.25104C8.71276 8.05799 9.1412 8.18387 9.3259 8.5322L10.5041 10.754Z" fill="white"/>
<path d="M7.3233 16.0047C7.71673 16.0305 8.01596 16.3703 7.99165 16.7639C7.96733 17.1574 7.62867 17.4555 7.23523 17.4298L4.93608 17.2793C4.54265 17.2536 4.24341 16.9137 4.26773 16.5202C4.29206 16.1266 4.63072 15.8285 5.02415 15.8542L7.3233 16.0047Z" fill="white"/>
</svg>
