<svg width="267" height="267" viewBox="0 0 267 267" fill="none" xmlns="http://www.w3.org/2000/svg">
<path d="M203.777 169.218C201.689 168.335 199.385 167.845 196.989 167.845C193.395 167.843 190.017 168.947 187.239 170.828C184.46 172.704 182.256 175.358 180.93 178.492C180.044 180.58 179.557 182.884 179.557 185.278C179.554 188.874 180.658 192.252 182.537 195.027C184.416 197.81 187.069 200.012 190.203 201.339C192.291 202.225 194.595 202.712 196.989 202.712C200.586 202.712 203.964 201.611 206.741 199.732C209.519 197.851 211.724 195.2 213.051 192.066C213.936 189.978 214.424 187.674 214.424 185.278C214.426 181.684 213.322 178.306 211.444 175.528C209.565 172.75 206.911 170.543 203.777 169.218ZM204.221 190.148C203.28 191.541 201.94 192.654 200.381 193.312C199.342 193.749 198.205 193.993 196.989 193.995C195.171 193.993 193.517 193.45 192.121 192.507C190.728 191.569 189.615 190.228 188.957 188.669C188.518 187.63 188.274 186.494 188.274 185.277C188.276 183.458 188.819 181.805 189.76 180.407C190.7 179.014 192.041 177.905 193.6 177.245C194.639 176.806 195.775 176.563 196.989 176.563C198.81 176.565 200.464 177.11 201.862 178.048C203.253 178.991 204.366 180.329 205.024 181.888C205.463 182.928 205.707 184.064 205.707 185.278C205.704 187.099 205.161 188.752 204.221 190.148Z" fill="white"/>
<path d="M135.972 98.1113C128.752 98.1113 122.898 102.99 122.898 109.006C122.898 115.024 128.753 119.903 135.972 119.903C143.193 119.903 149.048 115.024 149.048 109.006C149.048 102.99 143.193 98.1113 135.972 98.1113Z" fill="white"/>
<path d="M168.661 93.7529C162.645 93.7529 157.765 98.6321 157.765 104.649C157.765 110.665 162.645 115.545 168.661 115.545C174.677 115.545 179.557 110.665 179.557 104.649C179.557 98.6321 174.677 93.7529 168.661 93.7529Z" fill="white"/>
<path d="M192.632 128.62C197.447 128.62 201.349 124.716 201.349 119.903C201.349 115.088 197.447 111.186 192.632 111.186C187.817 111.186 183.916 115.088 183.916 119.903C183.916 124.715 187.817 128.62 192.632 128.62Z" fill="white"/>
<path d="M196.99 146.054C196.99 150.87 200.895 154.77 205.707 154.77C210.522 154.77 214.424 150.87 214.424 146.054C214.424 141.238 210.522 137.337 205.707 137.337C200.895 137.337 196.99 141.238 196.99 146.054Z" fill="white"/>
<path d="M157.536 64.804C169.589 64.804 181.098 67.322 191.557 71.8733C207.247 78.7041 220.581 90.1004 230.004 104.45C239.425 118.8 244.935 136.132 244.932 154.74C244.936 175.237 238.196 194.02 226.948 209.039C215.698 224.065 199.956 235.381 181.879 241.138C180.031 241.725 178.083 242 176.084 242.002C173.948 242 171.747 241.682 169.579 240.993C167.954 240.473 166.347 239.742 164.829 238.75C162.553 237.27 160.47 235.176 159.001 232.473C157.525 229.777 156.705 226.523 156.715 222.966C156.715 221.043 156.942 219.029 157.403 216.925C157.894 214.696 158.457 212.679 158.864 210.807C159.278 208.93 159.537 207.217 159.535 205.573C159.535 201.497 158.735 197.638 157.29 194.119C155.124 188.846 151.49 184.341 146.925 181.168C142.355 177.994 136.879 176.147 130.938 176.145C122.972 176.147 115.78 179.363 110.781 184.697C108.896 186.706 106.597 188.217 104.095 189.236C101.59 190.251 98.8719 190.776 96.077 190.776C92.9475 190.776 89.7198 190.112 86.6346 188.687C84.3237 187.618 82.0993 186.121 80.0878 184.186C77.0685 181.288 74.5463 177.415 72.8202 172.643C71.0897 167.867 70.1357 162.202 70.1356 155.585C70.1356 155.285 70.1381 154.979 70.1405 154.673V154.668C70.2332 147.601 71.095 140.721 72.6444 134.117C74.8393 138.646 77.0903 144.002 79.0487 147.976C79.4159 148.721 79.8906 149.471 80.455 150.217C80.3536 151.737 80.2926 153.268 80.2723 154.81L80.2675 155.585C80.2675 160.551 80.9059 164.594 81.9188 167.824C82.6764 170.251 83.6429 172.219 84.7186 173.823C86.3348 176.224 88.1945 177.813 90.1356 178.851C92.0769 179.883 94.1255 180.35 96.076 180.35C97.6242 180.35 99.1026 180.051 100.375 179.536C101.652 179.016 102.712 178.284 103.488 177.456C110.449 170.029 120.312 165.716 130.937 165.716C136.27 165.716 141.378 166.832 146.014 168.852C152.972 171.88 158.875 176.927 163.05 183.286C167.225 189.64 169.669 197.338 169.667 205.573C169.667 208.335 169.244 210.843 168.75 213.101C168.252 215.361 167.686 217.384 167.289 219.216C166.973 220.653 166.847 221.897 166.847 222.966C166.851 224.728 167.179 225.994 167.651 227.005C168.009 227.761 168.458 228.387 169.01 228.941C169.835 229.769 170.916 230.435 172.163 230.89C173.402 231.347 174.794 231.578 176.083 231.573C177.152 231.578 178.146 231.415 178.885 231.179C194.962 226.062 208.963 215.981 218.917 202.676C228.871 189.366 234.794 172.876 234.799 154.74C234.799 143.748 232.638 133.302 228.729 123.792C222.868 109.532 213.066 97.3792 200.73 88.8059C188.393 80.2326 173.554 75.2332 157.535 75.2307C148.426 75.2307 139.735 76.8485 131.675 79.8176C133.935 75.3016 136.263 70.8496 138.237 67.0129C144.441 65.567 150.901 64.804 157.536 64.804Z" fill="white"/>
<path d="M115.242 110.399C114.969 109.451 114.885 108.476 114.976 107.32C115.129 105.299 115.95 102.717 117.2 99.722C119.054 95.2168 121.831 89.8915 123.653 83.61C124.556 80.4756 125.213 77.0792 125.338 73.4445C125.469 69.8124 125.049 65.9439 123.874 61.943C117.519 40.2413 95.2792 27.9432 74.1822 34.4816C53.0925 41.0178 41.1477 63.9105 47.4956 85.6145C49.2748 91.7205 52.3687 96.534 55.9018 100.294C61.2135 105.935 67.3968 109.393 72.1655 112.543C74.5587 114.102 76.5903 115.577 78.0212 116.999C79.4626 118.43 80.2771 119.704 80.6915 121.107L89.759 118.296C89.1016 116.037 87.9988 114.042 86.6895 112.335C84.3755 109.353 81.4942 107.184 78.5309 105.173C74.0771 102.172 69.3385 99.4947 65.3927 96.0854C63.4181 94.3813 61.6485 92.518 60.1549 90.3658C58.6613 88.2136 57.435 85.7712 56.5665 82.8035C54.1405 74.514 55.2061 66.0435 58.8923 58.9693C62.5877 51.9001 68.8591 46.3129 76.913 43.8127C84.9694 41.3199 93.1958 42.4139 100.074 46.2062C106.943 50.009 112.377 56.4651 114.807 64.7535C116.118 69.2744 116.12 73.2642 115.426 77.1947C114.393 83.0759 111.601 88.7328 109.103 94.4504C107.865 97.3173 106.707 100.216 106.024 103.322C105.345 106.402 105.174 109.804 106.174 113.209L115.242 110.399L115.242 110.399Z" fill="white"/>
<path d="M88.5765 135.143L114.564 127.088C116.567 126.468 117.704 124.29 117.101 122.228C116.497 120.167 114.381 118.997 112.378 119.618L86.3901 127.672C84.3905 128.292 83.2538 130.47 83.8571 132.531C84.4604 134.593 86.5769 135.762 88.5765 135.143Z" fill="white"/>
<path d="M92.1773 147.445L118.165 139.391C120.168 138.77 121.305 136.592 120.703 134.535C120.099 132.473 117.984 131.307 115.981 131.928L89.9932 139.982C87.9935 140.602 86.8558 142.776 87.459 144.838C88.061 146.895 90.1777 148.065 92.1773 147.445Z" fill="white"/>
<path d="M98.8678 151.989C101.31 154.485 104.974 155.566 108.501 154.473C112.031 153.379 114.505 150.395 115.195 146.929L98.8678 151.989Z" fill="white"/>
<line x1="4.35836" y1="-4.35836" x2="24.1063" y2="-4.35836" transform="matrix(0.887794 0.460241 -0.439674 0.898157 13.1215 47.2375)" stroke="white" stroke-width="8.71672" stroke-linecap="round"/>
<line x1="4.35836" y1="-4.35836" x2="19.7115" y2="-4.35836" transform="matrix(0.468479 0.883475 -0.871928 0.489634 35.9948 25.807)" stroke="white" stroke-width="8.71672" stroke-linecap="round"/>
<line x1="4.35836" y1="-4.35836" x2="18.4249" y2="-4.35836" transform="matrix(0.997865 0.0653054 -0.0616815 0.998096 14.4871 78.5066)" stroke="white" stroke-width="8.71672" stroke-linecap="round"/>
</svg>
